<?xml version="1.0" encoding="utf-8"?>
<?xml-stylesheet type="text/xsl" href="rss1.xsl"?>
<rss version="2.0" xmlns:atom="http://www.w3.org/2005/Atom" xmlns:content="http://purl.org/rss/1.0/modules/content/" xmlns:dc="http://purl.org/dc/elements/1.1/" xmlns:media="http://search.yahoo.com/mrss/">
<channel>
 <title>sharemania</title>
 <link>http://www.sharemania.us/</link>
 <atom:link href="http://www.gettyimg.com/" rel="self" type="application/rss+xml" />

 
                <item>
                <title><![CDATA[【MASTER &amp; MASTER RIP】MASTER - Clean Bandit - Baby (feat. Marina &amp; Luis Fonsi) [MasterRip HEVC PCM]]]></title>
                <link><![CDATA[https://sharemania.us/threads/clean-bandit-baby-feat-marina-luis-fonsi-masterrip-hevc-pcm.282366/]]></link>
                <description><![CDATA[<article>
				<blockquote class="messageText SelectQuoteContainer ugc baseHtml">
					
					<div style="text-align: center"><img src="https://i.postimg.cc/Ykty7DKq/Clean-Bandit-Baby-feat-Marina-Luis-Fonsi-mkv.jpg" class="bbCodeImage LbImage" alt="[​IMG]" data-url="https://i.postimg.cc/Ykty7DKq/Clean-Bandit-Baby-feat-Marina-Luis-Fonsi-mkv.jpg" style=""><br>
<br>




<div class="bbCodeBlock bbCodeVfcHH HiddenContent">
	<div class="attribution type">Hidden Content:</div>
	<blockquote>You must reply before you can see the hidden data contained here.</blockquote>
</div></div><br>



<div class="ToggleTriggerAnchor bbCodeSpoilerContainer">
	<button type="button" class="button bbCodeSpoilerButton ToggleTrigger Tooltip JsOnly" data-target="&gt; .SpoilerTarget"><span>Spoiler: <span class="SpoilerTitle">Mediainfo:</span></span></button>
	<div class="SpoilerTarget bbCodeSpoilerText">Video<br>
ID                          : 1<br>
Format                      : HEVC<br>
Format/Info                 : High Efficiency Video Coding<br>
Format profile              : Main@L4.1@High<br>
Codec ID                    : V_MPEGH/ISO/HEVC<br>
Duration                    : 4 min 12 s<br>
Bit rate                    : 10.2 Mb/s<br>
Width                       : 1 920 pixels<br>
Height                      : 1 080 pixels<br>
Display aspect ratio        : 16:9<br>
Frame rate mode             : Constant<br>
Frame rate                  : 25.000 FPS<br>
Color space                 : YUV<br>
Chroma subsampling          : 4:2:0<br>
Bit depth                   : 8 bits<br>
Bits/(Pixel*Frame)          : 0.197<br>
Stream size                 : 307 MiB (88%)<br>
Writing library             : x265 4.1+1-1d117be:[Windows][GCC 13.2.0][64 bit] 8bit+10bit+12bit<br>
Default                     : Yes<br>
Forced                      : No<br>
Color range                 : Limited<br>
Color primaries             : BT.709<br>
Transfer characteristics    : BT.709<br>
Matrix coefficients         : BT.709<br>
<br>
Audio<br>
ID                          : 2<br>
Format                      : PCM<br>
Format settings             : Little / Signed<br>
Codec ID                    : A_PCM/INT/LIT<br>
Duration                    : 4 min 12 s<br>
Bit rate mode               : Constant<br>
Bit rate                    : 1 411.2 kb/s<br>
Channel(s)                  : 2 channels<br>
Sampling rate               : 44.1 kHz<br>
Frame rate                  : 25.000 FPS (1764 SPF)<br>
Bit depth                   : 16 bits<br>
Stream size                 : 42.4 MiB (12%)<br>
Default                     : Yes<br>
Forced                      : No</div>
</div>
					<div class="messageTextEndMarker">&nbsp;</div>
				</blockquote>
			</article>]]></description>
                <author><![CDATA[kyasuka]]></author>
                </item>

                </channel></rss>